<svg xmlns="http://www.w3.org/2000/svg" width="40" height="40" viewBox="0 0 40 40">
    <g fill="none" fill-rule="evenodd">
        <g fill-rule="nonzero">
            <g>
                <g>
                    <path fill="#36C5F0" d="M12.208 0C10.37.001 8.882 1.493 8.883 3.332c-.001 1.839 1.488 3.33 3.327 3.332h3.326v-3.33C15.537 1.493 14.048.002 12.208 0c.002 0 .002 0 0 0m0 8.887H3.34C1.502 8.888.012 10.38.014 12.22.01 14.058 1.5 15.55 3.339 15.552h8.87c1.838-.001 3.327-1.493 3.326-3.332.001-1.84-1.488-3.332-3.327-3.333z" transform="translate(-443 -122) translate(443 122) translate(3.333 3.333)"/>
                    <path fill="#2EB67D" d="M33.274 12.22c0-1.84-1.488-3.332-3.327-3.333-1.839.001-3.328 1.493-3.327 3.332v3.333h3.327c1.839-.001 3.328-1.493 3.327-3.333zm-8.87 0V3.331C24.405 1.495 22.918.002 21.08 0c-1.839.001-3.328 1.493-3.327 3.332v8.887c-.002 1.839 1.487 3.33 3.326 3.333 1.838-.001 3.327-1.493 3.326-3.333z" transform="translate(-443 -122) translate(443 122) translate(3.333 3.333)"/>
                    <path fill="#ECB22E" d="M21.078 33.327c1.838-.002 3.327-1.494 3.326-3.332.001-1.839-1.488-3.331-3.326-3.332H17.75v3.332c-.001 1.837 1.488 3.329 3.327 3.332zm0-8.889h8.869c1.839-.001 3.328-1.493 3.327-3.332.002-1.838-1.487-3.33-3.326-3.333H21.08c-1.839.001-3.328 1.493-3.327 3.332 0 1.84 1.487 3.332 3.326 3.333z" transform="translate(-443 -122) translate(443 122) translate(3.333 3.333)"/>
                    <path fill="#E01E5A" d="M.014 21.106c-.002 1.839 1.488 3.33 3.326 3.332 1.839-.001 3.328-1.493 3.327-3.332v-3.332H3.34c-1.838.002-3.328 1.494-3.326 3.332zm8.869 0v8.887c-.003 1.839 1.487 3.33 3.325 3.334 1.839-.002 3.328-1.494 3.327-3.332v-8.886c.002-1.839-1.487-3.33-3.325-3.333-1.84 0-3.328 1.492-3.327 3.33 0 0 0 .001 0 0" transform="translate(-443 -122) translate(443 122) translate(3.333 3.333)"/>
                </g>
            </g>
        </g>
    </g>
</svg>
